<svg id="Layer_1" data-name="Layer 1" xmlns="http://www.w3.org/2000/svg" viewBox="0 0 1833.42 505.22"><defs><style>.cls-1{fill:#fff;}</style></defs><title>Experilabs logo</title><path class="cls-1" d="M265.17,116.3c-76.39,0-138.54,62.15-138.54,138.54s62.15,138.54,138.54,138.54,138.54-62.15,138.54-138.54S341.56,116.3,265.17,116.3ZM147.25,267h85.83V242.5H147.27a117.23,117.23,0,0,1,4.33-21.63h88l28.24,33.66-30.6,34.11-2-.05h-83.7A117.58,117.58,0,0,1,147.25,267ZM265.17,373.38A118.64,118.64,0,0,1,162,313.09h92.25l33.21-39.88,32.74,39.92h39.37L307,254.61l48.74-58.12-37.15-.08-31.2,38.24-31.2-38.24h-18v0H162.08a118.53,118.53,0,1,1,103.09,177ZM825.65,267.15h111.9v-24.5H825.65Zm0,46.11h111.9v-24.5H825.65Zm0-92.22h111.9v-24.5H825.65Zm368.65-24.5h-29.22V313.26h101.67v-24.5H1194.3Zm481.24,54.55c-6.81-6-16.41-9-28.52-9h-44.43c-4,0-7.16-.87-9.31-2.59s-3-4.32-3-8.19,1-6.55,3-8.19,5.28-2.59,9.3-2.59l75.92.16V196.54h-78.59c-12.11,0-21.7,3-28.51,8.81S1561,220,1561,231.34s3.49,20.07,10.38,26,16.4,8.8,28.51,8.8h44.43c4.1,0,7.24.91,9.33,2.7s3,4.71,3,8.86-1,7.13-3,8.86-5.22,2.7-9.32,2.7l-80.65-.16v24.17H1647c12.12,0,21.72-3,28.53-9.05s10.36-15,10.36-26.52S1682.42,257.11,1675.54,251.09ZM548.25,267.17H444.5V242.68H548.25Zm126.69-70.51-37.15-.08-31.2,38.24-31.2-38.24h-18v0H444.5V221H558.76L587,254.7l-30.6,34.11-2-.05H444.5v24.5H573.38l33.21-39.88,32.74,39.92H678.7l-52.5-58.52Zm14.38,46v70.64h29.23V267.11h55.2c12.13,0,21.73-3.14,28.54-9.35s10.35-13.42,10.35-25.93-3.48-19.68-10.35-25.94-16.41-9.35-28.54-9.35H689.32V221h81.44c4.08,0,7.21,1,9.29,2.86s3.05,3,3.05,7.93-1,5.95-3.07,7.86-5.19,2.93-9.27,2.93Zm852.81,19.07a25.65,25.65,0,0,0-8.51-9.29c5.91-5.22,8.91-12.82,8.91-22.64,0-11-3.29-19.35-9.76-24.93s-16.19-8.29-29.14-8.29l-78.89.33v23.85h75.9c11.07,0,12.35,5.88,12.35,10.3,0,7.45-3.92,10.92-12.35,10.92h-75.9v24.18h79c8.43,0,12.35,3.58,12.35,11.25,0,7.88-3.92,11.55-12.35,11.55h-79v24.34l82-.16c13,0,22.78-3,29.17-8.8s9.72-14.52,9.72-25.67C1545.68,271.81,1544.49,266.11,1542.13,261.69ZM1107.49,221v92.22h29.22V196.54h-29.22Zm172.57,21.57v70h28.5V267.12h66.06V312.6h28.5V223a26.49,26.49,0,0,0-26.46-26.46H1240.2V221h126.11a8.32,8.32,0,0,1,8.31,8.32v13.25Zm-220.86,23.2c7.81-1.83,14-5.52,18.52-11,5-6.12,7.54-12.31,7.54-22.94,0-12.51-3.48-19.72-10.34-26s-16.42-9.35-28.54-9.35H962V221h81.43c4.09,0,7.21,1,9.29,2.86s3.06,3,3.06,8-1,6-3.08,7.91-5.19,2.83-9.26,2.83h-36.56c-.66.06.66,0-.06,0H962v70.65h29.22V267.2H1028l24.12,46.06h33.42Z"/></svg>